<svg width="16" height="17" viewBox="0 0 16 17" fill="none" xmlns="http://www.w3.org/2000/svg">
<mask id="mask0_213_156" style="mask-type:luminance" maskUnits="userSpaceOnUse" x="0" y="0" width="16" height="17">
<path d="M16 0.17041H0V16.1704H16V0.17041Z" fill="white"/>
</mask>
<g mask="url(#mask0_213_156)">
<path d="M8 9.50391C9.10457 9.50391 10 8.60848 10 7.50391C10 6.39934 9.10457 5.50391 8 5.50391C6.89543 5.50391 6 6.39934 6 7.50391C6 8.60848 6.89543 9.50391 8 9.50391Z" stroke="#816362" stroke-linecap="round" stroke-linejoin="round"/>
<path d="M11.7712 11.2749L8.94251 14.1035C8.6925 14.3533 8.35356 14.4936 8.00017 14.4936C7.64678 14.4936 7.30785 14.3533 7.05784 14.1035L4.22851 11.2749C3.48265 10.529 2.97473 9.57868 2.76896 8.54412C2.5632 7.50957 2.66883 6.43723 3.07251 5.4627C3.47618 4.48818 4.15977 3.65524 5.03683 3.06922C5.91388 2.4832 6.94502 2.17041 7.99984 2.17041C9.05466 2.17041 10.0858 2.4832 10.9629 3.06922C11.8399 3.65524 12.5235 4.48818 12.9272 5.4627C13.3308 6.43723 13.4365 7.50957 13.2307 8.54412C13.0249 9.57868 12.517 10.529 11.7712 11.2749Z" stroke="#816362" stroke-linecap="round" stroke-linejoin="round"/>
</g>
</svg>
