<svg width="32" height="32" viewBox="0 0 32 32" fill="none" xmlns="http://www.w3.org/2000/svg">
<rect width="32" height="32" rx="8" fill="#E6AF73"/>
<g clip-path="url(#clip0_884_6237)">
<path fill-rule="evenodd" clip-rule="evenodd" d="M15.75 13C16.1642 13 16.5 13.3358 16.5 13.75V23.75C16.5 24.1642 16.1642 24.5 15.75 24.5C15.3358 24.5 15 24.1642 15 23.75V13.75C15 13.3358 15.3358 13 15.75 13Z" fill="white"/>
<path fill-rule="evenodd" clip-rule="evenodd" d="M15.2197 13.2197C15.5126 12.9268 15.9874 12.9268 16.2803 13.2197L20.2803 17.2197C20.5732 17.5126 20.5732 17.9874 20.2803 18.2803C19.9874 18.5732 19.5126 18.5732 19.2197 18.2803L15.2197 14.2803C14.9268 13.9874 14.9268 13.5126 15.2197 13.2197Z" fill="white"/>
<path fill-rule="evenodd" clip-rule="evenodd" d="M16.2803 13.2197C16.5732 13.5126 16.5732 13.9874 16.2803 14.2803L12.2803 18.2803C11.9874 18.5732 11.5126 18.5732 11.2197 18.2803C10.9268 17.9874 10.9268 17.5126 11.2197 17.2197L15.2197 13.2197C15.5126 12.9268 15.9874 12.9268 16.2803 13.2197Z" fill="white"/>
<path fill-rule="evenodd" clip-rule="evenodd" d="M7 7.75C7 7.33579 7.33579 7 7.75 7H23.75C24.1642 7 24.5 7.33579 24.5 7.75C24.5 8.16421 24.1642 8.5 23.75 8.5H7.75C7.33579 8.5 7 8.16421 7 7.75Z" fill="white"/>
</g>
<defs>
<clipPath id="clip0_884_6237">
<rect x="4" y="4" width="24" height="24" rx="4" fill="white"/>
</clipPath>
</defs>
</svg>
